<svg width="50" height="50" viewBox="0 0 50 50" fill="none" xmlns="http://www.w3.org/2000/svg">
<path d="M25.1135 4.6875C14.8857 4.6875 6.53414 12.8695 6.25691 23.0314C6.25157 23.2028 6.25 23.377 6.25 23.5506C6.25 23.9276 6.26161 24.3049 6.28296 24.6766H13.9266C13.8896 24.9773 13.8657 25.2648 13.8657 25.5071V31.8641C13.8657 32.8055 14.6357 33.5755 15.5771 33.5755C16.5185 33.5755 17.2897 32.8055 17.2897 31.8641V30.8857H32.936V31.8641C32.936 32.8055 33.706 33.5755 34.6474 33.5755C35.5887 33.5755 36.3599 32.8055 36.3599 31.8641L36.3606 25.5075C36.3606 24.7008 36.1233 23.4244 35.8332 22.6714L35.4192 21.5954H35.9924C36.7322 21.5954 37.3371 20.9902 37.3371 20.2507C37.3371 19.5108 36.7319 18.906 35.9924 18.906H34.3855L33.22 15.8753C32.9297 15.121 32.0574 14.325 31.2817 14.103C31.2817 14.103 29.2697 13.5283 25.1131 13.5283C20.9564 13.5283 18.9444 14.103 18.9444 14.103C18.169 14.3243 17.2977 15.121 17.0076 15.8753L15.8421 18.906L14.2328 18.9063C13.4942 18.9063 12.8909 19.5115 12.8909 20.251C12.8909 20.9902 13.4948 21.5957 14.2328 21.5957H14.8075L14.3935 22.6717C14.3511 22.781 14.3103 22.9024 14.2711 23.0318L7.90212 23.0315C8.17867 13.7759 15.7938 6.33325 25.113 6.33325C34.608 6.33325 42.3328 14.056 42.3328 23.5514C42.3328 31.5563 36.8434 38.3025 29.4282 40.2207C28.9498 38.6493 27.4852 37.492 25.7566 37.492H23.9517C23.7646 37.492 23.597 37.6382 23.597 37.8479V38.9739H21.6169C21.1571 38.9739 20.8033 39.327 20.8033 39.7862C20.8033 39.9655 20.8573 40.129 20.9524 40.2608C21.0959 40.4693 21.3363 40.6011 21.6169 40.6011H23.597V42.0805H21.6169C21.6025 42.0805 21.5868 42.0805 21.5705 42.0833C21.1338 42.1043 20.8033 42.4496 20.8033 42.8956C20.8033 43.3545 21.1564 43.708 21.6169 43.708H23.597V44.8339C23.597 45.0238 23.7445 45.1899 23.9517 45.1899H25.7566C27.5088 45.1899 28.9894 44.0005 29.4468 42.3978H29.448V42.395V41.9153C37.7682 39.951 43.9774 32.4653 43.9774 23.5529C43.9774 13.1499 35.5142 4.68827 25.1127 4.68827L25.1135 4.6875ZM34.4044 25.3843C34.4044 26.1263 33.8017 26.729 33.0597 26.729C32.3164 26.729 31.715 26.1263 31.715 25.3843C31.715 24.6423 32.3161 24.0396 33.0597 24.0396C33.8018 24.0396 34.4044 24.6423 34.4044 25.3843ZM17.2152 20.6473L18.5892 16.9204C18.6814 16.6684 18.9765 16.4615 19.2458 16.4615H30.982C31.251 16.4615 31.5464 16.6684 31.6399 16.9192L33.0123 20.6473C33.1058 20.9007 32.9623 21.1063 32.6933 21.1063L17.5348 21.1066C17.2664 21.1059 17.1236 20.9003 17.2158 20.6473L17.2152 20.6473ZM17.1678 24.0396C17.9111 24.0396 18.5125 24.6423 18.5125 25.3843C18.5125 26.1263 17.9114 26.729 17.1678 26.729C16.4245 26.729 15.8231 26.1263 15.8231 25.3843C15.8234 24.6422 16.4242 24.0396 17.1678 24.0396Z" fill="#101010"/>
<path d="M25.1135 4.6875C14.8857 4.6875 6.53414 12.8695 6.25691 23.0314C6.25157 23.2028 6.25 23.377 6.25 23.5506C6.25 23.9276 6.26161 24.3049 6.28296 24.6766H13.9266C13.8896 24.9773 13.8657 25.2648 13.8657 25.5071V31.8641C13.8657 32.8055 14.6357 33.5755 15.5771 33.5755C16.5185 33.5755 17.2897 32.8055 17.2897 31.8641V30.8857H32.936V31.8641C32.936 32.8055 33.706 33.5755 34.6474 33.5755C35.5887 33.5755 36.3599 32.8055 36.3599 31.8641L36.3606 25.5075C36.3606 24.7008 36.1233 23.4244 35.8332 22.6714L35.4192 21.5954H35.9924C36.7322 21.5954 37.3371 20.9902 37.3371 20.2507C37.3371 19.5108 36.7319 18.906 35.9924 18.906H34.3855L33.22 15.8753C32.9297 15.121 32.0574 14.325 31.2817 14.103C31.2817 14.103 29.2697 13.5283 25.1131 13.5283C20.9564 13.5283 18.9444 14.103 18.9444 14.103C18.169 14.3243 17.2977 15.121 17.0076 15.8753L15.8421 18.906L14.2328 18.9063C13.4942 18.9063 12.8909 19.5115 12.8909 20.251C12.8909 20.9902 13.4948 21.5957 14.2328 21.5957H14.8075L14.3935 22.6717C14.3511 22.781 14.3103 22.9024 14.2711 23.0318L7.90212 23.0315C8.17867 13.7759 15.7938 6.33325 25.113 6.33325C34.608 6.33325 42.3328 14.056 42.3328 23.5514C42.3328 31.5563 36.8434 38.3025 29.4282 40.2207C28.9498 38.6493 27.4852 37.492 25.7566 37.492H23.9517C23.7646 37.492 23.597 37.6382 23.597 37.8479V38.9739H21.6169C21.1571 38.9739 20.8033 39.327 20.8033 39.7862C20.8033 39.9655 20.8573 40.129 20.9524 40.2608C21.0959 40.4693 21.3363 40.6011 21.6169 40.6011H23.597V42.0805H21.6169C21.6025 42.0805 21.5868 42.0805 21.5705 42.0833C21.1338 42.1043 20.8033 42.4496 20.8033 42.8956C20.8033 43.3545 21.1564 43.708 21.6169 43.708H23.597V44.8339C23.597 45.0238 23.7445 45.1899 23.9517 45.1899H25.7566C27.5088 45.1899 28.9894 44.0005 29.4468 42.3978H29.448V42.395V41.9153C37.7682 39.951 43.9774 32.4653 43.9774 23.5529C43.9774 13.1499 35.5142 4.68827 25.1127 4.68827L25.1135 4.6875ZM34.4044 25.3843C34.4044 26.1263 33.8017 26.729 33.0597 26.729C32.3164 26.729 31.715 26.1263 31.715 25.3843C31.715 24.6423 32.3161 24.0396 33.0597 24.0396C33.8018 24.0396 34.4044 24.6423 34.4044 25.3843ZM17.2152 20.6473L18.5892 16.9204C18.6814 16.6684 18.9765 16.4615 19.2458 16.4615H30.982C31.251 16.4615 31.5464 16.6684 31.6399 16.9192L33.0123 20.6473C33.1058 20.9007 32.9623 21.1063 32.6933 21.1063L17.5348 21.1066C17.2664 21.1059 17.1236 20.9003 17.2158 20.6473L17.2152 20.6473ZM17.1678 24.0396C17.9111 24.0396 18.5125 24.6423 18.5125 25.3843C18.5125 26.1263 17.9114 26.729 17.1678 26.729C16.4245 26.729 15.8231 26.1263 15.8231 25.3843C15.8234 24.6422 16.4242 24.0396 17.1678 24.0396Z" fill="black" fill-opacity="0.2"/>
</svg>
