<svg width="50" height="50" viewBox="0 0 50 50" fill="none" xmlns="http://www.w3.org/2000/svg">
<path fill-rule="evenodd" clip-rule="evenodd" d="M8.00016 8.86894V40.8866C8.00016 41.2851 8.3628 41.6477 8.76128 41.6477H28.243C28.6415 41.6477 29.0042 41.285 29.0042 40.8866V33.1319H32.0845V40.8866C32.0845 41.2851 32.3882 41.6477 32.7866 41.6477H40.8823C41.2808 41.6477 41.647 41.285 41.647 40.8866V14.3638C41.6435 13.6916 41.0411 13.386 40.4337 13.6857L28.992 19.9894L28.9801 14.3519C28.9849 13.8182 28.3004 13.4189 27.8382 13.6858L15.8019 20.6194V8.76112C15.8019 8.36263 15.4392 8 15.0408 8H8.82053C8.26992 8.00796 7.99804 8.38628 7.99994 8.8681L8.00016 8.86894Z" fill="#101010"/>
<path fill-rule="evenodd" clip-rule="evenodd" d="M8.00016 8.86894V40.8866C8.00016 41.2851 8.3628 41.6477 8.76128 41.6477H28.243C28.6415 41.6477 29.0042 41.285 29.0042 40.8866V33.1319H32.0845V40.8866C32.0845 41.2851 32.3882 41.6477 32.7866 41.6477H40.8823C41.2808 41.6477 41.647 41.285 41.647 40.8866V14.3638C41.6435 13.6916 41.0411 13.386 40.4337 13.6857L28.992 19.9894L28.9801 14.3519C28.9849 13.8182 28.3004 13.4189 27.8382 13.6858L15.8019 20.6194V8.76112C15.8019 8.36263 15.4392 8 15.0408 8H8.82053C8.26992 8.00796 7.99804 8.38628 7.99994 8.8681L8.00016 8.86894Z" fill="black" fill-opacity="0.2"/>
</svg>
