<svg width="100" height="100" viewBox="0 0 100 100" fill="none" xmlns="http://www.w3.org/2000/svg">
<g clip-path="url(#clip0_6317_2)">
<path d="M0 0V100H100V0H0ZM5.556 11.449L10.034 6.407H17.446L5.556 19.793V11.449ZM5.556 28.138L24.857 6.407H32.269L5.556 36.482V28.138ZM5.556 44.827L39.681 6.407H47.093L5.556 53.172V44.827ZM5.556 61.516L54.504 6.407H61.916L5.556 69.862V61.516ZM5.556 78.205L69.328 6.407H76.739L5.556 86.551V78.205ZM6.71 93.594L84.151 6.407H91.562L14.122 93.595L6.71 93.594ZM95 85.983L88.239 93.594H80.828L95 77.639V85.983ZM95 69.293L73.416 93.594H66.005L95 60.95V69.293ZM95 52.605L58.593 93.594H51.181L95 44.26V52.605ZM95 35.915L43.77 93.594H36.358L95 27.571V35.915ZM95 19.226L28.946 93.594H21.534L95 10.881V19.226Z" fill="black"/>
</g>
<defs>
<clipPath id="clip0_6317_2">
<rect width="100" height="100" fill="white"/>
</clipPath>
</defs>
</svg>
