<svg width="50" height="50" viewBox="0 0 50 50" fill="none" xmlns="http://www.w3.org/2000/svg">
<path d="M46.875 39.8684V41.0077H3.125V39.8684H5.80104C6.60908 37.9309 10.0321 29.2121 10.8137 18.7876C11.0406 15.762 11.0287 13.0307 10.9772 11.2447H19.0056V10.7405H10.9608C10.9385 10.1179 10.9127 9.64653 10.8961 9.375H24.739C24.6752 10.4099 24.4833 14.2768 24.821 18.7873C25.6026 29.2118 29.026 37.9306 29.8337 39.8681H30.3799C30.031 39.0485 28.6591 35.7 27.4076 30.9227C28.1115 27.8927 28.5753 24.9385 28.7832 22.1415C29.0644 18.3957 28.909 15.174 28.8524 14.2411H40.0512C39.9959 15.1736 39.8447 18.395 40.1255 22.1415C40.7765 30.8255 43.6045 38.1128 44.3321 39.8681L46.875 39.8684ZM30.4531 16.1435H38.8455V15.6393H30.4531V16.1435ZM20.6399 11.2451H22.5582V10.7409H20.6399V11.2451Z" fill="#101010"/>
<path d="M46.875 39.8684V41.0077H3.125V39.8684H5.80104C6.60908 37.9309 10.0321 29.2121 10.8137 18.7876C11.0406 15.762 11.0287 13.0307 10.9772 11.2447H19.0056V10.7405H10.9608C10.9385 10.1179 10.9127 9.64653 10.8961 9.375H24.739C24.6752 10.4099 24.4833 14.2768 24.821 18.7873C25.6026 29.2118 29.026 37.9306 29.8337 39.8681H30.3799C30.031 39.0485 28.6591 35.7 27.4076 30.9227C28.1115 27.8927 28.5753 24.9385 28.7832 22.1415C29.0644 18.3957 28.909 15.174 28.8524 14.2411H40.0512C39.9959 15.1736 39.8447 18.395 40.1255 22.1415C40.7765 30.8255 43.6045 38.1128 44.3321 39.8681L46.875 39.8684ZM30.4531 16.1435H38.8455V15.6393H30.4531V16.1435ZM20.6399 11.2451H22.5582V10.7409H20.6399V11.2451Z" fill="black" fill-opacity="0.2"/>
</svg>
