<svg width="50" height="50" viewBox="0 0 50 50" fill="none" xmlns="http://www.w3.org/2000/svg">
<path d="M14.3269 20.941H14.6957L15.1568 18.8667C15.2028 18.5439 15.341 18.2673 15.4333 17.9908H7.59683L8.42642 14.3952C8.61067 13.7038 9.21004 13.1967 9.94764 13.1967H19.5359C20.2735 13.1967 20.8726 13.7038 21.0571 14.3952L21.1494 14.8563H23.4543L23.2237 13.8881C22.8089 12.1363 21.2876 10.9378 19.5359 10.9378L9.99368 10.9375C8.19588 10.9375 6.67466 12.136 6.3058 13.8877L5.56817 17.0222L4.09321 17.0225C3.54014 17.0225 3.125 17.4836 3.125 17.9907V19.2354C3.125 19.6966 3.49382 20.1573 3.95459 20.2037L4.73853 20.3416C4.64624 20.6644 4.60026 20.987 4.60026 21.3098V27.9939C4.60026 28.5469 5.06137 28.9621 5.56847 28.9621H8.61098C9.07209 28.9621 9.48692 28.6392 9.5792 28.1785L9.994 25.9659H12.4372C12.1143 25.597 11.9301 25.0899 11.9301 24.5369V23.2922C11.9757 22.0012 13.0359 20.9411 14.3266 20.9411L14.3269 20.941ZM9.94768 23.1996L6.81322 23.0613C6.53668 23.0613 6.35211 22.8308 6.30613 22.6002C6.30613 22.1854 6.26015 21.5861 6.35211 21.079C6.39809 20.7562 6.67495 20.5719 6.99746 20.6642C7.96567 20.9408 9.30233 21.3096 9.90168 21.4478C10.0859 21.4938 10.2245 21.6321 10.2705 21.8167L10.4548 22.5543C10.547 22.8771 10.3165 23.1996 9.94768 23.1996Z" fill="#283244"/>
<path d="M24.5605 26.1961H24.9293L25.4364 24.1218C25.4824 23.799 25.6207 23.5225 25.713 23.2459H17.8765L18.7061 19.6503C18.8903 18.959 19.4897 18.4518 20.2273 18.4518H29.8156C30.5532 18.4518 31.1522 18.9589 31.3368 19.6503L31.4291 20.1114H33.7339L33.5034 19.1432C33.0886 17.3914 31.5673 16.1929 29.8155 16.1929L20.2272 16.1926C18.4754 16.1926 16.9541 17.3911 16.5393 19.1429L15.8017 22.3237H14.3264C13.7734 22.3237 13.3582 22.7848 13.3582 23.2919V24.5366C13.3582 25.0437 13.727 25.4585 14.1878 25.5048L14.9714 25.6431C14.8791 25.9659 14.8332 26.2884 14.8332 26.6113V33.2494C14.8332 33.8025 15.2943 34.2176 15.8014 34.2176H18.8439C19.305 34.2176 19.7198 33.8948 19.8121 33.434L20.2269 31.2214L22.7163 31.2208C22.3935 30.8519 22.2552 30.3448 22.2552 29.7918V28.5471C22.2092 27.2564 23.2694 26.1962 24.5601 26.1962L24.5605 26.1961ZM20.1813 28.4547L17.0469 28.3165C16.7703 28.3165 16.5858 28.0859 16.5398 27.8554C16.5398 27.4406 16.4938 26.8412 16.5858 26.3342C16.6318 26.0113 16.9086 25.8271 17.2311 25.9194C18.1993 26.1959 19.536 26.5187 20.1353 26.703C20.3196 26.749 20.4582 26.8872 20.5042 27.0718L20.6884 27.8554C20.7807 28.1323 20.5502 28.4547 20.1813 28.4547Z" fill="#283244"/>
<path d="M45.9497 27.579H44.4744L43.7368 24.4446C43.322 22.6928 41.8007 21.4943 40.0489 21.4943H30.4607C28.6629 21.4943 27.1416 22.6928 26.7728 24.4446L26.0351 27.579H24.5602C24.0071 27.579 23.592 27.9938 23.592 28.5472V29.7919C23.592 30.299 23.9608 30.7138 24.4216 30.7602L25.2052 30.8524C25.1129 31.1753 25.0669 31.4978 25.0669 31.8207V38.4588C25.0669 39.0118 25.4817 39.427 26.0351 39.427H29.0776C29.5388 39.427 29.9536 39.1041 30.0459 38.6434L30.4607 36.4308H40.0028L40.4176 38.6434C40.5099 39.1045 40.9247 39.427 41.3858 39.427H44.4284C44.9814 39.427 45.3966 39.0122 45.3966 38.4588V31.8207C45.3966 31.4978 45.3506 31.1293 45.2583 30.8524L46.0419 30.7602C46.503 30.7142 46.8715 30.299 46.8715 29.7919V28.5472C46.9175 27.9942 46.5027 27.579 45.9493 27.579H45.9497ZM28.9398 24.9516C29.124 24.2603 29.7234 23.7532 30.461 23.7532H40.0493C40.7869 23.7532 41.3859 24.2603 41.5705 24.9516L42.4001 28.5472H28.1098L28.9398 24.9516ZM30.4147 33.7101L27.2803 33.5719C27.0037 33.5719 26.8191 33.3413 26.7732 33.1108C26.7272 32.696 26.7272 32.0966 26.8191 31.5896C26.8651 31.2667 27.188 31.0825 27.4645 31.1748C28.4327 31.4513 29.7694 31.8201 30.3687 31.9584C30.553 32.0043 30.6916 32.1426 30.7375 32.3272L30.9218 33.0648C31.0141 33.4336 30.7376 33.7564 30.4147 33.7101ZM37.7441 33.2031C37.7441 33.3873 37.6059 33.5259 37.4213 33.5259H33.0421C32.8579 33.5259 32.7193 33.3876 32.7193 33.2031L32.7196 32.604C32.7196 32.4198 32.8579 32.2812 33.0424 32.2812H37.4216C37.6059 32.2812 37.7445 32.4194 37.7445 32.604L37.7441 33.2031ZM43.7369 33.1111C43.7369 33.3876 43.5063 33.5722 43.2298 33.5722L40.0953 33.7105C39.7725 33.7105 39.496 33.3876 39.5882 33.0651L39.7725 32.3275C39.8185 32.1432 39.9567 32.0046 40.1413 31.9587C40.7407 31.8204 42.0774 31.4516 43.0455 31.175C43.3221 31.0828 43.6449 31.2673 43.6909 31.5899C43.7832 32.0969 43.7369 32.696 43.7369 33.1111Z" fill="#283244"/>
</svg>
