<svg width="24" height="24" viewBox="0 0 24 24" fill="none" xmlns="http://www.w3.org/2000/svg">
<path d="M2.72511 21C2.54178 21 2.37511 20.954 2.22511 20.862C2.07511 20.77 1.95845 20.6493 1.87511 20.5C1.79178 20.35 1.74578 20.1873 1.73711 20.012C1.72845 19.8367 1.77445 19.666 1.87511 19.5L11.1251 3.5C11.2251 3.33333 11.3544 3.20833 11.5131 3.125C11.6718 3.04167 11.8341 3 12.0001 3C12.1668 3 12.3294 3.04167 12.4881 3.125C12.6468 3.20833 12.7758 3.33333 12.8751 3.5L22.1251 19.5C22.2251 19.6667 22.2711 19.8377 22.2631 20.013C22.2551 20.1883 22.2091 20.3507 22.1251 20.5C22.0418 20.65 21.9251 20.771 21.7751 20.863C21.6251 20.955 21.4584 21.0007 21.2751 21H2.72511ZM12.0001 18C12.2834 18 12.5211 17.904 12.7131 17.712C12.9051 17.52 13.0008 17.2827 13.0001 17C13.0001 16.7167 12.9041 16.479 12.7121 16.287C12.5201 16.095 12.2828 15.9993 12.0001 16C11.7168 16 11.4791 16.096 11.2871 16.288C11.0951 16.48 10.9994 16.7173 11.0001 17C11.0001 17.2833 11.0961 17.521 11.2881 17.713C11.4801 17.905 11.7174 18.0007 12.0001 18ZM12.0001 15C12.2834 15 12.5211 14.904 12.7131 14.712C12.9051 14.52 13.0008 14.2827 13.0001 14V11C13.0001 10.7167 12.9041 10.479 12.7121 10.287C12.5201 10.095 12.2828 9.99933 12.0001 10C11.7168 10 11.4791 10.096 11.2871 10.288C11.0951 10.48 10.9994 10.7173 11.0001 11V14C11.0001 14.2833 11.0961 14.521 11.2881 14.713C11.4801 14.905 11.7174 15.0007 12.0001 15Z" fill="black"/>
</svg>
