<svg width="40" height="40" viewBox="0 0 40 40" fill="none" xmlns="http://www.w3.org/2000/svg">
<path fill-rule="evenodd" clip-rule="evenodd" d="M31.0802 11.6556C31.4008 13.1434 30.9831 14.7588 29.8266 15.9148C28.4735 17.2679 26.4921 17.6094 24.8213 16.9402L16.7538 25.0076C17.4233 26.6782 17.082 28.6601 15.7282 30.0132C14.5719 31.1695 12.957 31.5871 11.469 31.2666L13.6956 29.0405C14.5683 28.1675 14.5683 26.7392 13.6956 25.8659L13.3188 25.4896C12.4461 24.6166 11.0179 24.6166 10.1442 25.4896L7.91835 27.7157C7.59781 26.228 8.01545 24.613 9.17172 23.4566C10.5249 22.1032 12.5068 21.7615 14.1771 22.4311L22.2445 14.3637C21.5751 12.6932 21.9164 10.7112 23.2696 9.3577C24.426 8.20187 26.0412 7.78381 27.5292 8.10433L25.303 10.3309C24.4301 11.2039 24.4301 12.6318 25.303 13.505L25.6794 13.8814C26.5523 14.7548 27.9811 14.7548 28.8539 13.8814L31.0801 11.6555L31.0802 11.6556ZM23.0842 21.4962C23.9369 20.7504 25.2447 20.7831 26.0568 21.5953L31.4014 26.9395C32.2485 27.7861 32.2485 29.1716 31.4014 30.0183L30.2526 31.1671C29.4055 32.0138 28.02 32.0138 27.1733 31.1671L21.8291 25.823C21.0169 25.0107 20.9845 23.7031 21.73 22.8506L21.0153 22.1359L22.37 20.7817L23.0843 21.4959L23.0842 21.4962ZM18.403 16.815L13.4639 11.8759L13.0262 10.5794L10.1868 8.59661C9.73483 9.04862 9.28239 9.50061 8.83038 9.95306L10.8132 12.7924L12.1092 13.2301L17.0483 18.1692L18.403 16.815Z" fill="black"/>
</svg>
