<svg width="50" height="50" viewBox="0 0 50 50" fill="none" xmlns="http://www.w3.org/2000/svg">
<path d="M35.1163 39.9766V35.2025H37.3834C39.6585 35.2025 41.5009 33.3598 41.5009 31.0858C41.5009 30.2108 41.2272 29.4002 40.7611 28.7332C41.0143 28.1983 41.1579 27.6004 41.1579 26.9691C41.1579 24.8859 39.6087 23.1641 37.5977 22.8911C36.9564 21.4547 35.5148 20.4522 33.8393 20.4522C33.7789 20.4522 33.7208 20.4591 33.6612 20.4606C34.4416 21.6106 34.8671 22.9742 34.8671 24.4115C34.8671 28.3051 31.6994 31.4731 27.8064 31.4731H25.6242C25.8193 33.5653 27.5791 35.2039 29.7235 35.2039H32.2576V39.6155C30.2285 39.417 27.9554 39.3059 25.5551 39.3059C24.7833 39.3059 24.0254 39.3177 23.2828 39.3399V30.5558H27.8066C31.1953 30.5558 33.9512 27.7999 33.9512 24.4121C33.9512 23.014 33.4865 21.6961 32.6478 20.6289C32.327 20.2218 31.9549 19.8501 31.5302 19.5266L31.3717 19.4055L31.353 19.2069C31.128 16.9707 29.6982 15.0376 27.6239 14.1632L27.3534 14.0489L27.3433 13.7554C27.2346 10.4217 24.5385 7.8125 21.2039 7.8125C18.7849 7.8125 16.5817 9.24137 15.593 11.4547L15.4897 11.6877L15.2365 11.722C12.2084 12.1323 9.92569 14.749 9.92569 17.8088C9.92569 18.7289 10.1242 19.6143 10.5167 20.4402L10.6312 20.6807L10.4784 20.8991C9.75622 21.9335 9.375 23.1477 9.375 24.4106C9.375 27.7984 12.1312 30.5544 15.5199 30.5544H19.6141V39.5447C13.9785 40.0223 10.0132 41.1566 10.0132 42.4799H41.098C41.0977 41.4627 38.7561 40.5581 35.116 39.9769L35.1163 39.9766Z" fill="#101010"/>
<path d="M35.1163 39.9766V35.2025H37.3834C39.6585 35.2025 41.5009 33.3598 41.5009 31.0858C41.5009 30.2108 41.2272 29.4002 40.7611 28.7332C41.0143 28.1983 41.1579 27.6004 41.1579 26.9691C41.1579 24.8859 39.6087 23.1641 37.5977 22.8911C36.9564 21.4547 35.5148 20.4522 33.8393 20.4522C33.7789 20.4522 33.7208 20.4591 33.6612 20.4606C34.4416 21.6106 34.8671 22.9742 34.8671 24.4115C34.8671 28.3051 31.6994 31.4731 27.8064 31.4731H25.6242C25.8193 33.5653 27.5791 35.2039 29.7235 35.2039H32.2576V39.6155C30.2285 39.417 27.9554 39.3059 25.5551 39.3059C24.7833 39.3059 24.0254 39.3177 23.2828 39.3399V30.5558H27.8066C31.1953 30.5558 33.9512 27.7999 33.9512 24.4121C33.9512 23.014 33.4865 21.6961 32.6478 20.6289C32.327 20.2218 31.9549 19.8501 31.5302 19.5266L31.3717 19.4055L31.353 19.2069C31.128 16.9707 29.6982 15.0376 27.6239 14.1632L27.3534 14.0489L27.3433 13.7554C27.2346 10.4217 24.5385 7.8125 21.2039 7.8125C18.7849 7.8125 16.5817 9.24137 15.593 11.4547L15.4897 11.6877L15.2365 11.722C12.2084 12.1323 9.92569 14.749 9.92569 17.8088C9.92569 18.7289 10.1242 19.6143 10.5167 20.4402L10.6312 20.6807L10.4784 20.8991C9.75622 21.9335 9.375 23.1477 9.375 24.4106C9.375 27.7984 12.1312 30.5544 15.5199 30.5544H19.6141V39.5447C13.9785 40.0223 10.0132 41.1566 10.0132 42.4799H41.098C41.0977 41.4627 38.7561 40.5581 35.116 39.9769L35.1163 39.9766Z" fill="black" fill-opacity="0.2"/>
</svg>
